<?xml version="1.0" encoding="UTF-8" standalone="no"?>
<svg
   width="1280"
   height="360"
   viewBox="0 0 1279.9999 360.00001"
   version="1.1"
   id="svg21"
   sodipodi:docname="candyget_logo.svg"
   inkscape:version="1.1.1 (3bf5ae0d25, 2021-09-20)"
   xmlns:inkscape="http://www.inkscape.org/namespaces/inkscape"
   xmlns:sodipodi="http://sodipodi.sourceforge.net/DTD/sodipodi-0.dtd"
   xmlns="http://www.w3.org/2000/svg"
   xmlns:svg="http://www.w3.org/2000/svg">
  <defs
     id="defs25" />
  <sodipodi:namedview
     id="namedview23"
     pagecolor="#ffffff"
     bordercolor="#666666"
     borderopacity="1.0"
     inkscape:pageshadow="2"
     inkscape:pageopacity="1"
     inkscape:pagecheckerboard="0"
     showgrid="false"
     inkscape:zoom="0.60947527"
     inkscape:cx="564.41995"
     inkscape:cy="132.08083"
     inkscape:window-width="1920"
     inkscape:window-height="991"
     inkscape:window-x="-9"
     inkscape:window-y="-9"
     inkscape:window-maximized="1"
     inkscape:current-layer="layer3" />
  <g
     inkscape:groupmode="layer"
     id="layer3"
     inkscape:label="Layer 1">
    <g
       id="g1635"
       transform="translate(0,48.755901)">
      <g
         id="svgGroup"
         stroke-linecap="round"
         fill-rule="evenodd"
         font-size="12px"
         stroke="#000"
         stroke-width="0.25mm"
         fill="#000"
         style="fill:#000000;stroke:#000000;stroke-width:0.25mm"
         transform="matrix(2.379829,0,0,2.379854,16.90494,1.4079043)">
        <path
           d="m 39.875,74.085 a 30.152,30.152 0 0 0 1.713,-1.915 15.788,15.788 0 0 0 3.732,5.93 15.429,15.429 0 0 0 6.888,4.101 20.186,20.186 0 0 0 5.597,0.739 35.478,35.478 0 0 0 2.805,-0.107 q 5.819,-0.462 9.57,-2.918 4.62,-3.025 7.48,-7.755 1.98,10.23 7.81,10.23 a 18.707,18.707 0 0 0 4.208,-0.49 23.441,23.441 0 0 0 4.592,-1.6 q 4.51,-2.09 8.195,-5.335 a 33.404,33.404 0 0 0 1.118,-1.03 29.056,29.056 0 0 0 3.342,-3.804 324.47,324.47 0 0 0 -0.005,1.919 60.942,60.942 0 0 0 0.031,1.986 q 0.149,4.556 1.014,6.924 a 5.844,5.844 0 0 0 0.501,1.053 q 0.618,1.008 1.572,1.454 a 4.022,4.022 0 0 0 1.722,0.353 4.906,4.906 0 0 0 0.534,-0.03 q 0.902,-0.099 1.996,-0.52 a 52.928,52.928 0 0 0 1.189,-0.478 q 5.432,-2.261 7.248,-4.565 A 3.75,3.75 0 0 0 123.64,75.9 4.669,4.669 0 0 0 123.637,75.722 Q 123.576,74.14 122.485,70.4 A 30.998,30.998 0 0 1 121.98,68.434 26.43,26.43 0 0 1 121.33,62.7 v -0.77 q 1.43,-7.26 5.555,-14.025 a 30.256,30.256 0 0 1 0.492,-0.78 q 2.129,-3.263 4.374,-4.747 a 6.861,6.861 0 0 1 3.824,-1.238 9.775,9.775 0 0 1 0.438,0.01 q 4.127,0.184 4.127,3.95 0,2.42 -0.55,4.73 -0.412,1.733 -1.165,5.012 a 1967.8,1967.8 0 0 0 -0.54,2.358 43.926,43.926 0 0 0 -0.789,4.617 55.308,55.308 0 0 0 -0.366,6.493 q 0,6.38 1.807,9.869 a 7.331,7.331 0 0 0 6.993,4.211 q 0.085,0.084 0.298,0.104 a 1.554,1.554 0 0 0 0.142,0.006 q 3.52,0 16.28,-7.48 a 35.505,35.505 0 0 0 1.718,-1.729 25.795,25.795 0 0 0 0.795,-0.885 15.788,15.788 0 0 0 3.647,5.694 q 4.73,4.84 12.65,4.84 a 30.194,30.194 0 0 0 2.318,-0.087 q 5.454,-0.42 9.673,-2.862 a 22.051,22.051 0 0 0 7.589,-7.501 q 0.834,4.413 2.498,6.859 a 6.296,6.296 0 0 0 5.422,3.041 18.707,18.707 0 0 0 4.208,-0.49 23.441,23.441 0 0 0 4.592,-1.6 q 4.51,-2.09 8.195,-5.335 a 33.404,33.404 0 0 0 1.118,-1.03 29.056,29.056 0 0 0 0.773,-0.767 10.049,10.049 0 0 0 3.829,5.317 q 2.924,2.057 7.15,2.765 a 29.031,29.031 0 0 0 4.785,0.37 22.016,22.016 0 0 0 0.663,-0.01 q 4.935,-0.149 8.771,-2.527 a 18.84,18.84 0 0 0 5.306,-5.053 q -0.55,2.86 -2.09,9.46 a 253.352,253.352 0 0 1 -6.077,1.416 204.596,204.596 0 0 1 -5.693,1.169 q -3.093,0.588 -5.752,1.28 a 60.361,60.361 0 0 0 -3.873,1.14 A 28.044,28.044 0 0 0 233.07,89 q -1.476,0.581 -2.688,1.268 a 14.174,14.174 0 0 0 -2.407,1.692 q -2.365,2.09 -2.365,5.61 a 12.746,12.746 0 0 0 1.71,6.551 14.505,14.505 0 0 0 3.405,3.899 17.935,17.935 0 0 0 5.846,3.199 20.986,20.986 0 0 0 6.529,0.981 q 10.78,0 16.06,-6.38 a 23.231,23.231 0 0 0 1.56,-2.159 26.958,26.958 0 0 0 2.4,-4.771 q 1.54,-3.96 2.86,-8.36 11.22,-5.17 18.975,-14.41 4.969,-5.919 6.754,-10.891 a 15.636,15.636 0 0 0 1.001,-5.279 15.949,15.949 0 0 0 0,-0.041 q -0.008,-3.479 -1.54,-3.479 a 1.085,1.085 0 0 0 -0.118,0.007 q -0.968,0.106 -2.522,1.918 -1.65,1.925 -4.07,4.785 a 119.094,119.094 0 0 1 -6.181,6.638 92.292,92.292 0 0 1 -8.009,7.112 831.395,831.395 0 0 0 3.317,-11.308 q 4.541,-15.942 5.787,-23.427 a 31.611,31.611 0 0 0 0.466,-4.095 5.245,5.245 0 0 0 -0.148,-1.176 q -0.331,-1.429 -1.399,-3.374 a 31.889,31.889 0 0 0 -1.203,-1.995 19.7,19.7 0 0 0 -0.145,-0.22 q -1.479,-2.213 -3.053,-3.239 A 5.108,5.108 0 0 0 271.26,27.17 q -1.9,0.068 -3.047,1.1 a 4.512,4.512 0 0 0 -1.133,1.65 10.758,10.758 0 0 0 -0.133,0.328 q -0.749,1.923 -3.002,9.132 -1.856,5.94 -3.929,14.293 a 457.276,457.276 0 0 0 -1.406,5.837 q -1.54,4.4 -3.74,7.37 a 7.047,7.047 0 0 1 -4.168,2.68 11.348,11.348 0 0 1 -2.652,0.29 9.959,9.959 0 0 1 -0.473,-0.011 Q 243.43,69.642 243.43,65.89 a 12.141,12.141 0 0 1 -0.002,-0.258 q 0,-4.127 2.62,-14.069 a 256.924,256.924 0 0 1 1.672,-6.023 22.887,22.887 0 0 0 0.537,-2.189 18.438,18.438 0 0 0 0.343,-3.476 q 0,-1.684 -0.085,-3.089 A 32.188,32.188 0 0 0 248.38,35.2 15.29,15.29 0 0 0 248.181,33.816 q -0.655,-3.383 -2.736,-4.571 a 5.302,5.302 0 0 0 -2.675,-0.645 23.6,23.6 0 0 0 -1.591,0.052 q -4.718,0.319 -7.649,2.588 l -3.143,25.688 a 11.605,11.605 0 0 0 -0.591,0.553 q -0.364,0.362 -0.776,0.819 -8.765,9.116 -12.362,10.968 a 3.5,3.5 0 0 1 -1.498,0.472 1.527,1.527 0 0 1 -1.141,-0.51 q -1.066,-1.119 -1.314,-4.695 a 34.766,34.766 0 0 1 -0.075,-2.385 30.41,30.41 0 0 1 0.001,-0.234 q 0.013,-1.673 0.207,-4.025 a 109.744,109.744 0 0 1 0.232,-2.451 q 1.54,-14.74 4.73,-26.62 1.43,-2.09 2.86,-4.125 1.43,-2.035 2.585,-4.18 a 23.266,23.266 0 0 0 0.487,-0.957 26.176,26.176 0 0 0 1.438,-3.718 q 0.77,-2.53 0.77,-5.17 a 5.932,5.932 0 0 0 -0.006,-0.271 Q 225.852,8.602 224.69,6.364 A 20.99,20.99 0 0 0 223.52,4.4 Q 222.038,2.028 220.428,0.935 A 5.004,5.004 0 0 0 217.58,0 3.643,3.643 0 0 0 215.854,0.46 q -0.591,0.315 -1.182,0.845 a 10.023,10.023 0 0 0 -1.052,1.115 25.544,25.544 0 0 0 -2.917,4.525 q -2.792,5.365 -5.226,14.259 A 171.565,171.565 0 0 0 203.17,30.8 l -2.53,-0.66 q -1.663,-0.454 -4.159,-0.596 A 43.17,43.17 0 0 0 194.04,29.48 q -9.24,0 -17.82,7.37 a 34.471,34.471 0 0 0 -10.682,16.569 45.295,45.295 0 0 0 -1.347,6.439 2686.439,2686.439 0 0 1 -0.827,0.848 3472.739,3472.739 0 0 1 -2.324,2.379 87.063,87.063 0 0 1 -0.907,0.915 77.281,77.281 0 0 1 -3.933,3.65 q -1.625,1.404 -2.904,1.865 a 3.45,3.45 0 0 1 -1.166,0.225 1.597,1.597 0 0 1 -0.065,-10e-4 Q 150.92,69.692 150.92,67.98 a 11.365,11.365 0 0 1 0.088,-1.343 q 0.162,-1.358 0.627,-3.112 a 273.426,273.426 0 0 0 0.119,-0.449 q 0.723,-2.742 2.191,-8.516 a 55.181,55.181 0 0 0 0.194,-0.783 49.765,49.765 0 0 0 1.401,-11.592 16.296,16.296 0 0 0 -0.273,-3.06 10.939,10.939 0 0 0 -3.577,-6.4 11.71,11.71 0 0 0 -3.29,-1.992 q -1.78,-0.728 -4,-1.067 a 27.9,27.9 0 0 0 -4.205,-0.296 21.364,21.364 0 0 0 -0.475,0.005 16.981,16.981 0 0 0 -12.34,5.385 31.435,31.435 0 0 0 -1.236,-2.409 Q 123.172,27.17 119.9,27.17 a 3.711,3.711 0 0 0 -2.093,0.677 q -1.145,0.767 -2.197,2.403 -5.83,8.91 -7.48,19.25 a 55.387,55.387 0 0 0 -0.522,3.937 110.909,110.909 0 0 0 -0.285,3.468 11.605,11.605 0 0 0 -0.617,0.576 q -0.364,0.362 -0.776,0.819 -8.765,9.116 -12.362,10.968 A 3.5,3.5 0 0 1 92.07,69.74 1.089,1.089 0 0 1 91.764,69.697 Q 90.097,69.211 89.817,63.24 a 56.489,56.489 0 0 1 -0.057,-2.63 177.417,177.417 0 0 1 0.009,-1.732 q 0.077,-7.889 0.871,-12.458 1.88,-3.202 3.187,-5.831 A 52.746,52.746 0 0 0 95.15,37.73 5.12,5.12 0 0 0 95.148,37.572 Q 95.083,35.486 93.321,33.211 A 17.186,17.186 0 0 0 91.685,31.405 Q 90.413,30.173 89.089,29.394 A 9.181,9.181 0 0 0 84.37,28.05 2.417,2.417 0 0 0 83.504,28.211 q -1.033,0.392 -1.933,1.747 A 10.809,10.809 0 0 0 80.85,31.24 11.851,11.851 0 0 0 79.21,30.496 Q 77.753,29.961 75.996,29.707 A 23.839,23.839 0 0 0 72.6,29.48 a 35.649,35.649 0 0 0 -0.315,0.001 31.917,31.917 0 0 0 -9.31,1.429 19.526,19.526 0 0 0 -2.68,1.075 q -3.4,1.65 -7.165,4.865 a 34.471,34.471 0 0 0 -10.682,16.569 45.295,45.295 0 0 0 -1.225,5.596 100.519,100.519 0 0 1 -1.444,1.581 138.265,138.265 0 0 1 -2.379,2.489 q -2.53,2.585 -5.555,4.785 a 12.8,12.8 0 0 1 -1.397,0.888 q -2.307,1.258 -4.767,1.258 A 9.652,9.652 0 0 1 25.52,70.015 14.718,14.718 0 0 1 23.077,69.779 10.98,10.98 0 0 1 19.8,68.64 8.979,8.979 0 0 1 19.177,68.256 Q 17.572,67.172 16.823,65.591 A 7.142,7.142 0 0 1 16.17,62.7 55.63,55.63 0 0 1 16.173,62.214 q 0.031,-3.628 0.538,-6.846 A 33.613,33.613 0 0 1 18.59,48.29 q 0.568,-1.444 1.268,-2.646 a 13.932,13.932 0 0 1 1.757,-2.414 8.76,8.76 0 0 1 0.453,-0.46 q 1.608,-1.513 3.342,-1.465 a 5.044,5.044 0 0 1 2.18,0.56 6.397,6.397 0 0 1 1.45,1.035 q 1.65,1.54 3.85,1.54 a 2.373,2.373 0 0 0 0.403,-0.034 q 1.033,-0.178 2.045,-1.269 a 9.005,9.005 0 0 0 0.797,-1.007 7.674,7.674 0 0 0 0.695,-1.244 q 0.489,-1.098 0.712,-2.451 A 15.15,15.15 0 0 0 37.73,35.97 q 0,-5.347 -5.378,-6.433 A 15.69,15.69 0 0 0 29.26,29.26 q -4.84,0 -10.23,2.695 a 29.801,29.801 0 0 0 -2.061,1.135 31.989,31.989 0 0 0 -7.564,6.4 35.022,35.022 0 0 0 -2.83,3.713 40.674,40.674 0 0 0 -3.99,7.782 A 36.48,36.48 0 0 0 0.807,57.16 44.857,44.857 0 0 0 0,65.835 21.057,21.057 0 0 0 0.264,69.236 14.099,14.099 0 0 0 5.5,78.375 Q 11,82.72 18.315,82.72 a 35.788,35.788 0 0 0 6.033,-0.484 25.906,25.906 0 0 0 6.672,-2.046 35.235,35.235 0 0 0 4.134,-2.274 26.666,26.666 0 0 0 4.721,-3.831 z m 378.259,-44.02 a 12.068,12.068 0 0 0 -0.794,1.945 9.404,9.404 0 0 0 -0.339,-0.171 q -1.852,-0.886 -5.216,-1.589 a 38.851,38.851 0 0 0 -3.129,-0.526 30.249,30.249 0 0 0 -3.746,-0.244 q -9.24,0 -17.82,7.37 A 34.471,34.471 0 0 0 376.408,53.419 45.295,45.295 0 0 0 374.66,66.33 q -0.11,6.93 4.62,11.77 a 14.443,14.443 0 0 0 2.178,1.829 q 2.57,1.758 5.991,2.49 a 25.385,25.385 0 0 0 5.306,0.521 26.877,26.877 0 0 0 0.544,-0.005 20.853,20.853 0 0 0 14.251,-5.605 q -0.44,1.87 -0.825,3.685 -0.385,1.815 -0.935,3.685 -6.05,1.32 -11.385,2.2 a 101.117,101.117 0 0 0 -1.473,0.254 q -2.169,0.391 -4.093,0.84 a 57.709,57.709 0 0 0 -3.729,0.996 25.389,25.389 0 0 0 -1.339,0.449 q -1.416,0.52 -2.576,1.156 a 12.746,12.746 0 0 0 -2.3,1.585 q -2.255,1.98 -2.255,5.39 a 12.746,12.746 0 0 0 1.71,6.551 14.505,14.505 0 0 0 3.405,3.899 17.935,17.935 0 0 0 5.846,3.199 20.986,20.986 0 0 0 6.529,0.981 q 10.78,0 16.06,-6.38 a 23.231,23.231 0 0 0 1.56,-2.159 26.958,26.958 0 0 0 2.4,-4.771 q 1.54,-3.96 2.86,-8.36 11.22,-5.17 18.975,-14.41 a 60.755,60.755 0 0 0 1.273,-1.567 45.038,45.038 0 0 0 1.319,-1.753 12.892,12.892 0 0 0 0.213,0.46 q 4.73,9.46 17.82,9.46 a 59.7,59.7 0 0 0 1.2,-0.012 q 15.647,-0.314 24.76,-8.898 a 33.368,33.368 0 0 0 0.531,-0.511 q 1.588,-1.565 2.769,-3.16 a 19.155,19.155 0 0 0 1.296,-1.968 44.284,44.284 0 0 0 0.134,1.074 36.371,36.371 0 0 0 0.036,0.243 q 0.268,1.816 0.693,3.415 a 22.427,22.427 0 0 0 1.086,3.162 18.522,18.522 0 0 0 0.018,0.041 q 1.261,2.886 3.172,4.579 1.324,1.172 3.453,1.538 a 12.419,12.419 0 0 0 2.102,0.167 14.725,14.725 0 0 0 2.171,-0.17 q 2.854,-0.425 6.354,-1.92 4.895,-2.09 8.91,-5.335 a 37.263,37.263 0 0 0 1.575,-1.346 31.995,31.995 0 0 0 5.08,-5.804 20.773,20.773 0 0 0 0.213,-0.32 q 1.003,-1.546 1.592,-3.065 a 11.731,11.731 0 0 0 0.835,-4.26 q 0,-2.199 -0.532,-3.105 a 1.131,1.131 0 0 0 -1.008,-0.635 1.599,1.599 0 0 0 -0.233,0.018 q -1.486,0.219 -3.727,3.172 a 14.269,14.269 0 0 1 -0.112,0.146 q -1.655,2.124 -4.671,4.37 a 48.899,48.899 0 0 1 -3.137,2.139 65.646,65.646 0 0 1 -1.362,0.836 q -3.221,1.922 -5.061,2.439 a 4.416,4.416 0 0 1 -1.167,0.19 q -2.095,0 -2.455,-6.035 a 46.712,46.712 0 0 1 -0.075,-2.765 85.999,85.999 0 0 1 0.249,-6.272 q 0.509,-6.931 2.061,-15.948 l 11,0.55 q 1.21,0.11 2.145,-2.86 a 26.719,26.719 0 0 0 0.513,-1.842 q 0.422,-1.778 0.422,-3.108 a 6.639,6.639 0 0 0 -0.001,-0.156 q -0.016,-0.654 -0.164,-0.999 a 0.209,0.209 0 0 0 -0.026,-0.045 q -0.211,-0.275 -1.503,-0.328 a 16.589,16.589 0 0 0 -0.671,-0.012 q -2.035,0 -9.735,-0.22 l 4.51,-7.92 q -0.55,-1.76 -0.99,-3.3 -1.76,-5.5 -6.16,-5.61 a 4.183,4.183 0 0 0 -2.306,0.751 q -3.283,2.147 -6.487,10.435 a 91.81,91.81 0 0 0 -1.987,5.754 q -1.76,0.11 -3.3,0.11 h -2.64 a 22.628,22.628 0 0 0 -0.076,0.09 q -1.171,1.392 -1.786,2.584 a 6.891,6.891 0 0 0 -0.503,1.231 10.305,10.305 0 0 0 -0.245,1.066 q -0.25,1.404 -0.25,3.279 0,0.872 0.83,1.053 a 2.314,2.314 0 0 0 0.49,0.047 h 4.95 q -1.815,8.243 -2.382,14.147 a 51.442,51.442 0 0 0 -0.238,3.706 4.863,4.863 0 0 0 -0.032,0.027 q -0.315,0.261 -0.668,0.616 a 16.821,16.821 0 0 0 -0.75,0.809 q -1.168,1.341 -2.767,2.832 A 61.677,61.677 0 0 1 480.48,63.25 32.907,32.907 0 0 1 474.638,67.271 22.712,22.712 0 0 1 463.87,70.07 19.522,19.522 0 0 1 461.651,69.886 15.687,15.687 0 0 1 456.61,68.31 5.704,5.704 0 0 1 453.697,65 7.782,7.782 0 0 1 453.31,62.7 v -2.75 q 4.4,-1.98 8.965,-3.575 a 63.592,63.592 0 0 0 3.041,-1.149 52.461,52.461 0 0 0 5.264,-2.481 22.469,22.469 0 0 0 1.598,-0.955 18.672,18.672 0 0 0 4.507,-4.105 10.796,10.796 0 0 0 2.006,-4.328 15.491,15.491 0 0 0 0.359,-3.427 13.31,13.31 0 0 0 -0.013,-0.602 9.836,9.836 0 0 0 -3.232,-7.098 q -3.245,-2.97 -9.24,-2.97 -5.995,0 -11.275,2.695 a 28.16,28.16 0 0 0 -1.619,0.895 29.744,29.744 0 0 0 -7.676,6.64 34.719,34.719 0 0 0 -2.998,4.232 41.36,41.36 0 0 0 -3.437,7.263 43.501,43.501 0 0 0 -1.377,4.517 34.824,34.824 0 0 0 -0.904,5.35 125.851,125.851 0 0 0 -0.843,1.04 177.555,177.555 0 0 0 -1.166,1.468 114.078,114.078 0 0 1 -0.44,0.56 q -6.826,8.635 -13.86,14.07 3.465,-11.797 5.755,-20.285 a 460.216,460.216 0 0 0 1.395,-5.29 q 2.53,-9.845 2.75,-14.355 a 5.245,5.245 0 0 0 -0.148,-1.176 q -0.331,-1.429 -1.399,-3.374 a 31.889,31.889 0 0 0 -1.203,-1.995 19.7,19.7 0 0 0 -0.145,-0.22 q -1.479,-2.213 -3.053,-3.239 a 5.108,5.108 0 0 0 -2.632,-0.886 4.074,4.074 0 0 0 -2.994,1.262 q -0.646,0.649 -1.162,1.633 z M 390.83,62.7 a 16.862,16.862 0 0 0 0.249,3.039 q 1.001,5.431 6.021,5.431 3.328,0 6.754,-2.359 a 18.889,18.889 0 0 0 0.396,-0.281 q 2.948,-2.144 4.953,-6.463 a 28.74,28.74 0 0 0 0.877,-2.117 267.421,267.421 0 0 1 1.692,-7.398 211.738,211.738 0 0 1 1.773,-6.792 q 1.815,-6.49 2.475,-9.02 -9.24,1.21 -17.215,8.25 a 22.504,22.504 0 0 0 -7.941,16.35 27.65,27.65 0 0 0 -0.034,1.36 z m -333.96,0 a 16.862,16.862 0 0 0 0.249,3.039 q 1.001,5.431 6.021,5.431 a 11.834,11.834 0 0 0 8.453,-3.738 19.476,19.476 0 0 0 2.657,-3.412 18.451,18.451 0 0 0 1.363,-2.602 Q 76.27,59.895 76.78,58.08 a 115.528,115.528 0 0 1 0.364,-9.429 q 0.364,-4.445 1.096,-8.304 a 60.166,60.166 0 0 1 0.74,-3.387 q -8.91,1.76 -15.51,8.58 A 23.227,23.227 0 0 0 56.939,60.636 30.804,30.804 0 0 0 56.87,62.7 Z m 123.09,0 a 16.862,16.862 0 0 0 0.249,3.039 q 1.001,5.431 6.021,5.431 a 10.721,10.721 0 0 0 4.284,-0.93 q 1.418,-0.613 2.844,-1.631 a 19.475,19.475 0 0 0 0.407,-0.299 q 2.904,-2.188 4.81,-6.631 a 30.369,30.369 0 0 0 1.075,-2.939 q 0.22,-9.9 2.31,-21.78 a 28.861,28.861 0 0 0 -14.985,8.159 34.963,34.963 0 0 0 -0.415,0.421 23.227,23.227 0 0 0 -6.531,15.096 30.804,30.804 0 0 0 -0.069,2.064 z m 63.03,41.03 a 6.541,6.541 0 0 0 4.038,-1.489 q 2.831,-2.175 5.312,-7.531 -3.96,0.77 -7.04,1.155 a 299.481,299.481 0 0 0 -2.186,0.281 q -0.859,0.114 -1.633,0.222 a 155.432,155.432 0 0 0 -1.461,0.212 q -4.292,0.644 -4.292,2.23 a 1.201,1.201 0 0 0 0.002,0.08 3.369,3.369 0 0 0 0.92,2.302 q 0.432,0.484 1.068,0.914 a 8.182,8.182 0 0 0 0.487,0.304 q 2.299,1.328 4.455,1.328 a 6.955,6.955 0 0 0 0.33,-0.008 z m 152.46,-7.7 a 116.171,116.171 0 0 0 1.953,-0.307 q 2.255,-0.374 4.977,-0.903 a 49.666,49.666 0 0 1 -0.109,0.238 q -2.649,5.719 -5.345,7.666 a 4.75,4.75 0 0 1 -2.796,1.006 7.619,7.619 0 0 1 -0.346,0.008 q -1.2,0 -2.413,-0.378 a 10.524,10.524 0 0 1 -2.136,-0.95 8.195,8.195 0 0 1 -0.702,-0.453 q -0.594,-0.43 -0.989,-0.904 A 3.14,3.14 0 0 1 386.76,99 a 1.99,1.99 0 0 1 0.004,-0.124 q 0.056,-0.894 0.931,-1.306 a 4.936,4.936 0 0 1 0.313,-0.133 q 0.92,-0.358 2.547,-0.637 1.925,-0.33 4.895,-0.77 z M 462,39.05 a 5,5 0 0 0 -3.897,1.991 q -2.673,3.156 -4.023,11.319 2.31,-1.54 4.345,-2.75 Q 460.46,48.4 462,47.3 a 10.973,10.973 0 0 0 1.679,-1.495 q 1.654,-1.839 1.731,-4.005 0,-2.496 -2.81,-2.727 A 7.356,7.356 0 0 0 462,39.05 Z"
           vector-effect="non-scaling-stroke"
           id="path18" />
      </g>
    </g>
    <g
       inkscape:groupmode="layer"
       id="layer1"
       inkscape:label="candyget" />
    <g
       inkscape:groupmode="layer"
       id="layer2"
       inkscape:label="candy">
      <g
         id="g264"
         transform="matrix(1.6868522,0,0,1.7850589,696.26417,74.16789)">
        <path
           style="fill:#e0e0e0"
           d="m 26.54,15.7 c 0,0 0.79,-4.27 2.36,-6.74 1.57,-2.47 4.16,-5.28 4.94,-4.94 0.79,0.34 1.57,3.48 4.5,9.78 2.93,6.3 7.87,14.83 7.75,20.45 -0.12,5.62 -2.25,8.43 -2.25,8.43 0,0 -6.05,9.99 -17.5,9.06 C 17.04,50.99 12.89,47.88 7.79,45.17 5.66,44.04 3.04,43.92 2.82,42.79 2.6,41.67 3.92,39.84 4.96,38.63 c 1.75,-2.04 5.46,-3.28 6.93,-5.91 1.47,-2.63 1.48,-6.62 3.86,-9.97 4.42,-6.19 10.79,-7.05 10.79,-7.05 z"
           id="path214" />
        <path
           style="fill:#ffffff"
           d="m 33.23,13.68 c -0.91,-0.1 -2.14,2.33 -1.96,4.04 0.18,1.71 1.65,4.44 3.31,7.96 1.96,4.16 3.42,9.98 5.27,9.55 1.84,-0.43 0.37,-6.18 -1.22,-10.59 -1.61,-4.41 -4.24,-10.84 -5.4,-10.96 z"
           id="path216" />
        <path
           style="fill:#ffffff"
           d="m 29.17,35.06 c 1.49,-0.72 0.8,-3.98 -0.37,-7.96 -1.17,-3.98 -1.9,-5.87 -4.16,-6.31 -2.2,-0.43 -3.73,0.86 -4.9,2.51 -1.17,1.65 -2.02,3.61 -1.96,4.71 0.06,1.1 0.37,1.84 2.02,2.51 0.99,0.4 2.5,0.88 3.98,1.84 1.71,1.1 3.73,3.49 5.39,2.7 z"
           id="path218" />
        <path
           style="fill:#ffffff"
           d="m 10.94,37.06 c -1.6,0 -4.29,2.08 -3.8,3.61 0.55,1.72 4.27,1.62 8.69,2.51 6.98,1.41 11.23,3.02 11.88,0.98 0.43,-1.35 -5.2,-3.61 -8.63,-4.78 -2.57,-0.86 -6.18,-2.32 -8.14,-2.32 z"
           id="path220" />
        <path
           style="fill:#e0e0e0"
           d="m 81.73,81.65 c -4.85,5.17 -7.37,12.51 -2.6,21.25 3.73,6.82 8.65,9.22 11.68,14.07 3.03,4.85 2.67,7.81 3.45,7.74 0.77,-0.07 3.24,-2.53 4.5,-5.21 1.27,-2.67 0.77,-5.07 2.04,-6.61 1.27,-1.54 5.49,-1.76 7.95,-4.71 2.46,-2.95 2.11,-5.42 4.36,-7.74 2.25,-2.32 5.56,-3.03 7.81,-5.63 2.25,-2.6 4.29,-5.91 3.8,-6.68 -0.49,-0.77 -2.25,-0.35 -7.46,-1.9 -5.21,-1.55 -15.69,-8.3 -23.5,-8.86 -5.49,-0.4 -8.86,0.91 -12.03,4.28 z"
           id="path222" />
        <path
           style="fill:#ffffff"
           d="m 89.74,83.42 c -0.81,1.43 7.27,3.2 11.68,6 4.41,2.8 6.87,5.45 8.55,5.45 1.68,0 6.01,-2.44 5.66,-4.19 -0.35,-1.75 -3.19,-1.7 -4.42,-2.07 -1.39,-0.43 -7.46,-3.33 -9.55,-4.25 -3.02,-1.35 -10.62,-3.23 -11.92,-0.94 z"
           id="path224" />
        <path
           style="fill:#ffffff"
           d="m 89.31,89.88 c -0.82,0.92 1.55,3.47 5.69,7.89 4.49,4.8 6.63,6.44 8.59,4.49 1.78,-1.78 0.31,-3.87 -3.33,-6.61 -2.65,-2 -9.98,-6.85 -10.95,-5.77 z"
           id="path226" />
        <path
           style="fill:#ffffff"
           d="m 87.76,97.56 c -1.3,0.47 1.24,6.85 2.09,9.59 0.85,2.75 2.48,6.19 4.18,6.19 1.7,0 3.33,-2.09 3.06,-4.22 -0.27,-2.13 -3.8,-5.87 -4.76,-7.04 -1.36,-1.66 -3.72,-4.83 -4.57,-4.52 z"
           id="path228" />
        <path
           style="fill:#ff5960"
           d="M 39.09,44.82 C 32.62,51.54 30.46,58.4 31.19,67.79 32.14,79.86 45.3,95.15 61.16,94.8 73.96,94.52 81.25,88.1 84.57,83.43 87.63,79.13 91.86,72.46 90.79,62.31 89.51,50.13 76.83,35.55 61.54,35.46 49.32,35.38 44.06,39.66 39.09,44.82 Z"
           id="path230" />
        <path
           style="fill:#fe7c84"
           d="m 40.82,54 c -4.42,9.69 -9.69,12.85 -9.69,12.85 0,0 0.1,1.98 0.5,3.81 0.47,2.15 1.22,3.85 1.22,3.85 0,0 5.65,-4.17 9.13,-10.22 3.78,-6.57 6.2,-12.13 7.15,-17.09 0.95,-4.96 1.37,-10.22 1.37,-10.22 0,0 -1.67,0.52 -3.67,1.56 -1.59,0.83 -2.39,1.49 -2.39,1.49 0,0 0.07,5.89 -3.62,13.97 z"
           id="path232" />
        <path
           style="fill:#fe7c84"
           d="m 57.34,35.63 c 0,0 0.75,4.09 -1.17,11.9 -0.93,3.78 -2.46,8.74 -5.04,14.22 -2.31,4.92 -4.53,8.43 -6.46,11.34 -4.53,6.85 -7.65,8.79 -7.65,8.79 0,0 1.01,1.4 2.04,2.52 1.03,1.12 2.37,2.34 2.37,2.34 0,0 5.3,-2.89 12.31,-15.45 7.01,-12.56 8.89,-20.42 9.65,-25.8 0.77,-5.38 0.64,-9.89 0.64,-9.89 0,0 -1.79,-0.16 -3.33,-0.15 -1.91,0.01 -3.36,0.18 -3.36,0.18 z"
           id="path234" />
        <path
           style="fill:#fe7c84"
           d="m 71.03,37.39 c 0,0 -0.45,15.85 -7.47,29.7 -6.53,12.88 -16.6,23.78 -16.6,23.78 0,0 1.4,0.91 3.26,1.72 2.12,0.92 3.94,1.34 3.94,1.34 0,0 2.29,-2.1 5.68,-6.95 2.84,-4.08 6.95,-9.85 10.61,-18.2 2.99,-6.81 4.28,-12 5.3,-16.42 1.63,-7.05 1.38,-11.62 1.38,-11.62 0,0 -1.11,-0.9 -2.95,-1.87 -1.79,-0.96 -3.15,-1.48 -3.15,-1.48 z"
           id="path236" />
        <path
           style="fill:#fe7c84"
           d="m 83.3,46.33 c 0,0 -0.39,10.78 -7.32,26.44 -2.69,6.07 -5.04,9.94 -7.32,13.26 -4.21,6.12 -7.5,8.77 -7.5,8.77 0,0 2.79,-0.09 5,-0.44 2.45,-0.39 4.37,-1.02 4.37,-1.02 0,0 5.57,-5.68 10.86,-17.37 5.08,-11.22 6.78,-22.35 6.78,-22.35 0,0 -0.75,-1.76 -2.17,-3.82 -1.1,-1.6 -2.7,-3.47 -2.7,-3.47 z"
           id="path238" />
        <path
           style="fill:#ffffff"
           d="m 55.7,41.92 c -5.44,1.19 -10.95,5.01 -12.33,8.46 -1.4,3.5 1.01,5.24 3.4,4.51 2.39,-0.74 5.61,-4.19 10.76,-5.11 5.15,-0.92 9.52,-0.41 11.68,0.18 2.16,0.59 3.93,0.42 4.38,-1.24 0.43,-1.58 -0.43,-3.71 -4.06,-5.57 -4,-2.04 -9.83,-2.1 -13.83,-1.23 z"
           id="path240" />
        <path
           style="opacity:0.5;fill:#ffffff"
           d="M 90.8,62.31 C 89.52,50.13 76.84,35.55 61.55,35.46 49.32,35.38 44.06,39.67 39.09,44.83 c -6.47,6.72 -8.63,13.58 -7.9,22.97 0.95,12.07 14.11,27.36 29.97,27.01 12.8,-0.28 20.09,-6.7 23.41,-11.37 3.07,-4.31 7.3,-10.98 6.23,-21.13 z M 81.26,80.94 C 78.38,84.98 72.08,90.54 61,90.78 47.28,91.08 35.89,77.85 35.06,67.4 c -0.64,-8.12 1.23,-14.06 6.83,-19.88 4.3,-4.47 8.85,-8.17 19.43,-8.1 13.23,0.08 24.21,12.7 25.31,23.24 0.94,8.79 -2.73,14.56 -5.37,18.28 z"
           id="path242" />
      </g>
    </g>
  </g>
</svg>
