<svg xmlns="http://www.w3.org/2000/svg" width="1280" height="360"><path fill-rule="evenodd" stroke="#000" stroke-linecap="round" stroke-width=".945" d="M39.875 74.085a30.152 30.152 0 0 0 1.713-1.915 15.788 15.788 0 0 0 3.732 5.93 15.429 15.429 0 0 0 6.888 4.101 20.186 20.186 0 0 0 5.597.739 35.478 35.478 0 0 0 2.805-.107q5.819-.462 9.57-2.918 4.62-3.025 7.48-7.755 1.98 10.23 7.81 10.23a18.707 18.707 0 0 0 4.208-.49 23.441 23.441 0 0 0 4.592-1.6q4.51-2.09 8.195-5.335a33.404 33.404 0 0 0 1.118-1.03 29.056 29.056 0 0 0 3.342-3.804 324.47 324.47 0 0 0-.005 1.919 60.942 60.942 0 0 0 .031 1.986q.149 4.556 1.014 6.924a5.844 5.844 0 0 0 .501 1.053q.618 1.008 1.572 1.454a4.022 4.022 0 0 0 1.722.353 4.906 4.906 0 0 0 .534-.03q.902-.099 1.996-.52a52.928 52.928 0 0 0 1.189-.478q5.432-2.261 7.248-4.565a3.75 3.75 0 0 0 .913-2.327 4.669 4.669 0 0 0-.003-.178q-.061-1.582-1.152-5.322a30.998 30.998 0 0 1-.505-1.966 26.43 26.43 0 0 1-.65-5.734v-.77q1.43-7.26 5.555-14.025a30.256 30.256 0 0 1 .492-.78q2.129-3.263 4.374-4.747a6.861 6.861 0 0 1 3.824-1.238 9.775 9.775 0 0 1 .438.01q4.127.184 4.127 3.95 0 2.42-.55 4.73-.412 1.733-1.165 5.012a1967.8 1967.8 0 0 0-.54 2.358 43.926 43.926 0 0 0-.789 4.617 55.308 55.308 0 0 0-.366 6.493q0 6.38 1.807 9.869a7.331 7.331 0 0 0 6.993 4.211q.085.084.298.104a1.554 1.554 0 0 0 .142.006q3.52 0 16.28-7.48a35.505 35.505 0 0 0 1.718-1.729 25.795 25.795 0 0 0 .795-.885 15.788 15.788 0 0 0 3.647 5.694q4.73 4.84 12.65 4.84a30.194 30.194 0 0 0 2.318-.087q5.454-.42 9.673-2.862a22.051 22.051 0 0 0 7.589-7.501q.834 4.413 2.498 6.859a6.296 6.296 0 0 0 5.422 3.041 18.707 18.707 0 0 0 4.208-.49 23.441 23.441 0 0 0 4.592-1.6q4.51-2.09 8.195-5.335a33.404 33.404 0 0 0 1.118-1.03 29.056 29.056 0 0 0 .773-.767 10.049 10.049 0 0 0 3.829 5.317q2.924 2.057 7.15 2.765a29.031 29.031 0 0 0 4.785.37 22.016 22.016 0 0 0 .663-.01q4.935-.149 8.771-2.527a18.84 18.84 0 0 0 5.306-5.053q-.55 2.86-2.09 9.46a253.352 253.352 0 0 1-6.077 1.416 204.596 204.596 0 0 1-5.693 1.169q-3.093.588-5.752 1.28a60.361 60.361 0 0 0-3.873 1.14 28.044 28.044 0 0 0-1.395.505q-1.476.581-2.688 1.268a14.174 14.174 0 0 0-2.407 1.692q-2.365 2.09-2.365 5.61a12.746 12.746 0 0 0 1.71 6.551 14.505 14.505 0 0 0 3.405 3.899 17.935 17.935 0 0 0 5.846 3.199 20.986 20.986 0 0 0 6.529.981q10.78 0 16.06-6.38a23.231 23.231 0 0 0 1.56-2.159 26.958 26.958 0 0 0 2.4-4.771q1.54-3.96 2.86-8.36 11.22-5.17 18.975-14.41 4.969-5.919 6.754-10.891a15.636 15.636 0 0 0 1.001-5.279 15.949 15.949 0 0 0 0-.041q-.008-3.479-1.54-3.479a1.085 1.085 0 0 0-.118.007q-.968.106-2.522 1.918-1.65 1.925-4.07 4.785a119.094 119.094 0 0 1-6.181 6.638 92.292 92.292 0 0 1-8.009 7.112 831.395 831.395 0 0 0 3.317-11.308q4.541-15.942 5.787-23.427a31.611 31.611 0 0 0 .466-4.095 5.245 5.245 0 0 0-.148-1.176q-.331-1.429-1.399-3.374a31.889 31.889 0 0 0-1.203-1.995 19.7 19.7 0 0 0-.145-.22q-1.479-2.213-3.053-3.239a5.108 5.108 0 0 0-2.632-.886q-1.9.068-3.047 1.1a4.512 4.512 0 0 0-1.133 1.65 10.758 10.758 0 0 0-.133.328q-.749 1.923-3.002 9.132-1.856 5.94-3.929 14.293a457.276 457.276 0 0 0-1.406 5.837q-1.54 4.4-3.74 7.37a7.047 7.047 0 0 1-4.168 2.68 11.348 11.348 0 0 1-2.652.29 9.959 9.959 0 0 1-.473-.011q-4.147-.197-4.147-3.949a12.141 12.141 0 0 1-.002-.258q0-4.127 2.62-14.069a256.924 256.924 0 0 1 1.672-6.023 22.887 22.887 0 0 0 .537-2.189 18.438 18.438 0 0 0 .343-3.476q0-1.684-.085-3.089a32.188 32.188 0 0 0-.135-1.586 15.29 15.29 0 0 0-.199-1.384q-.655-3.383-2.736-4.571a5.302 5.302 0 0 0-2.675-.645 23.6 23.6 0 0 0-1.591.052q-4.718.319-7.649 2.588l-3.143 25.688a11.605 11.605 0 0 0-.591.553q-.364.362-.776.819-8.765 9.116-12.362 10.968a3.5 3.5 0 0 1-1.498.472 1.527 1.527 0 0 1-1.141-.51q-1.066-1.119-1.314-4.695a34.766 34.766 0 0 1-.075-2.385 30.41 30.41 0 0 1 .001-.234q.013-1.673.207-4.025a109.744 109.744 0 0 1 .232-2.451q1.54-14.74 4.73-26.62 1.43-2.09 2.86-4.125t2.585-4.18a23.266 23.266 0 0 0 .487-.957 26.176 26.176 0 0 0 1.438-3.718q.77-2.53.77-5.17a5.932 5.932 0 0 0-.006-.271q-.082-1.797-1.244-4.035a20.99 20.99 0 0 0-1.17-1.964q-1.482-2.372-3.092-3.465A5.004 5.004 0 0 0 217.58 0a3.643 3.643 0 0 0-1.726.46q-.591.315-1.182.845a10.023 10.023 0 0 0-1.052 1.115 25.544 25.544 0 0 0-2.917 4.525q-2.792 5.365-5.226 14.259a171.565 171.565 0 0 0-2.307 9.596l-2.53-.66q-1.663-.454-4.159-.596a43.17 43.17 0 0 0-2.441-.064q-9.24 0-17.82 7.37a34.471 34.471 0 0 0-10.682 16.569 45.295 45.295 0 0 0-1.347 6.439 2686.439 2686.439 0 0 1-.827.848 3472.739 3472.739 0 0 1-2.324 2.379 87.063 87.063 0 0 1-.907.915 77.281 77.281 0 0 1-3.933 3.65q-1.625 1.404-2.904 1.865a3.45 3.45 0 0 1-1.166.225 1.597 1.597 0 0 1-.065-.001q-1.145-.047-1.145-1.759a11.365 11.365 0 0 1 .088-1.343q.162-1.358.627-3.112a273.426 273.426 0 0 0 .119-.449q.723-2.742 2.191-8.516a55.181 55.181 0 0 0 .194-.783 49.765 49.765 0 0 0 1.401-11.592 16.296 16.296 0 0 0-.273-3.06 10.939 10.939 0 0 0-3.577-6.4 11.71 11.71 0 0 0-3.29-1.992q-1.78-.728-4-1.067a27.9 27.9 0 0 0-4.205-.296 21.364 21.364 0 0 0-.475.005 16.981 16.981 0 0 0-12.34 5.385 31.435 31.435 0 0 0-1.236-2.409q-2.972-5.181-6.244-5.181a3.711 3.711 0 0 0-2.093.677q-1.145.767-2.197 2.403-5.83 8.91-7.48 19.25a55.387 55.387 0 0 0-.522 3.937 110.909 110.909 0 0 0-.285 3.468 11.605 11.605 0 0 0-.617.576q-.364.362-.776.819-8.765 9.116-12.362 10.968a3.5 3.5 0 0 1-1.498.472 1.089 1.089 0 0 1-.306-.043q-1.667-.486-1.947-6.457a56.489 56.489 0 0 1-.057-2.63 177.417 177.417 0 0 1 .009-1.732q.077-7.889.871-12.458 1.88-3.202 3.187-5.831a52.746 52.746 0 0 0 1.323-2.859 5.12 5.12 0 0 0-.002-.158q-.065-2.086-1.827-4.361a17.186 17.186 0 0 0-1.636-1.806q-1.272-1.232-2.596-2.011a9.181 9.181 0 0 0-4.719-1.344 2.417 2.417 0 0 0-.866.161q-1.033.392-1.933 1.747a10.809 10.809 0 0 0-.721 1.282 11.851 11.851 0 0 0-1.64-.744q-1.457-.535-3.214-.789a23.839 23.839 0 0 0-3.396-.227 35.649 35.649 0 0 0-.315.001 31.917 31.917 0 0 0-9.31 1.429 19.526 19.526 0 0 0-2.68 1.075q-3.4 1.65-7.165 4.865a34.471 34.471 0 0 0-10.682 16.569 45.295 45.295 0 0 0-1.225 5.596 100.519 100.519 0 0 1-1.444 1.581 138.265 138.265 0 0 1-2.379 2.489q-2.53 2.585-5.555 4.785a12.8 12.8 0 0 1-1.397.888q-2.307 1.258-4.767 1.258a9.652 9.652 0 0 1-.161-.001 14.718 14.718 0 0 1-2.443-.236A10.98 10.98 0 0 1 19.8 68.64a8.979 8.979 0 0 1-.623-.384q-1.605-1.084-2.354-2.665a7.142 7.142 0 0 1-.653-2.891 55.63 55.63 0 0 1 .003-.486q.031-3.628.538-6.846a33.613 33.613 0 0 1 1.879-7.078q.568-1.444 1.268-2.646a13.932 13.932 0 0 1 1.757-2.414 8.76 8.76 0 0 1 .453-.46q1.608-1.513 3.342-1.465a5.044 5.044 0 0 1 2.18.56 6.397 6.397 0 0 1 1.45 1.035q1.65 1.54 3.85 1.54a2.373 2.373 0 0 0 .403-.034q1.033-.178 2.045-1.269a9.005 9.005 0 0 0 .797-1.007 7.674 7.674 0 0 0 .695-1.244q.489-1.098.712-2.451a15.15 15.15 0 0 0 .188-2.465q0-5.347-5.378-6.433a15.69 15.69 0 0 0-3.092-.277q-4.84 0-10.23 2.695a29.801 29.801 0 0 0-2.061 1.135 31.989 31.989 0 0 0-7.564 6.4 35.022 35.022 0 0 0-2.83 3.713 40.674 40.674 0 0 0-3.99 7.782A36.48 36.48 0 0 0 .807 57.16 44.857 44.857 0 0 0 0 65.835a21.057 21.057 0 0 0 .264 3.401A14.099 14.099 0 0 0 5.5 78.375Q11 82.72 18.315 82.72a35.788 35.788 0 0 0 6.033-.484 25.906 25.906 0 0 0 6.672-2.046 35.235 35.235 0 0 0 4.134-2.274 26.666 26.666 0 0 0 4.721-3.831zm378.259-44.02a12.068 12.068 0 0 0-.794 1.945 9.404 9.404 0 0 0-.339-.171q-1.852-.886-5.216-1.589a38.851 38.851 0 0 0-3.129-.526 30.249 30.249 0 0 0-3.746-.244q-9.24 0-17.82 7.37a34.471 34.471 0 0 0-10.682 16.569 45.295 45.295 0 0 0-1.748 12.911q-.11 6.93 4.62 11.77a14.443 14.443 0 0 0 2.178 1.829q2.57 1.758 5.991 2.49a25.385 25.385 0 0 0 5.306.521 26.877 26.877 0 0 0 .544-.005 20.853 20.853 0 0 0 14.251-5.605q-.44 1.87-.825 3.685-.385 1.815-.935 3.685-6.05 1.32-11.385 2.2a101.117 101.117 0 0 0-1.473.254q-2.169.391-4.093.84a57.709 57.709 0 0 0-3.729.996 25.389 25.389 0 0 0-1.339.449q-1.416.52-2.576 1.156a12.746 12.746 0 0 0-2.3 1.585q-2.255 1.98-2.255 5.39a12.746 12.746 0 0 0 1.71 6.551 14.505 14.505 0 0 0 3.405 3.899 17.935 17.935 0 0 0 5.846 3.199 20.986 20.986 0 0 0 6.529.981q10.78 0 16.06-6.38a23.231 23.231 0 0 0 1.56-2.159 26.958 26.958 0 0 0 2.4-4.771q1.54-3.96 2.86-8.36 11.22-5.17 18.975-14.41a60.755 60.755 0 0 0 1.273-1.567 45.038 45.038 0 0 0 1.319-1.753 12.892 12.892 0 0 0 .213.46q4.73 9.46 17.82 9.46a59.7 59.7 0 0 0 1.2-.012q15.647-.314 24.76-8.898a33.368 33.368 0 0 0 .531-.511q1.588-1.565 2.769-3.16a19.155 19.155 0 0 0 1.296-1.968 44.284 44.284 0 0 0 .134 1.074 36.371 36.371 0 0 0 .036.243q.268 1.816.693 3.415a22.427 22.427 0 0 0 1.086 3.162 18.522 18.522 0 0 0 .018.041q1.261 2.886 3.172 4.579 1.324 1.172 3.453 1.538a12.419 12.419 0 0 0 2.102.167 14.725 14.725 0 0 0 2.171-.17q2.854-.425 6.354-1.92 4.895-2.09 8.91-5.335a37.263 37.263 0 0 0 1.575-1.346 31.995 31.995 0 0 0 5.08-5.804 20.773 20.773 0 0 0 .213-.32q1.003-1.546 1.592-3.065a11.731 11.731 0 0 0 .835-4.26q0-2.199-.532-3.105a1.131 1.131 0 0 0-1.008-.635 1.599 1.599 0 0 0-.233.018q-1.486.219-3.727 3.172a14.269 14.269 0 0 1-.112.146q-1.655 2.124-4.671 4.37a48.899 48.899 0 0 1-3.137 2.139 65.646 65.646 0 0 1-1.362.836q-3.221 1.922-5.061 2.439a4.416 4.416 0 0 1-1.167.19q-2.095 0-2.455-6.035a46.712 46.712 0 0 1-.075-2.765 85.999 85.999 0 0 1 .249-6.272q.509-6.931 2.061-15.948l11 .55q1.21.11 2.145-2.86a26.719 26.719 0 0 0 .513-1.842q.422-1.778.422-3.108a6.639 6.639 0 0 0-.001-.156q-.016-.654-.164-.999a.209.209 0 0 0-.026-.045q-.211-.275-1.503-.328a16.589 16.589 0 0 0-.671-.012q-2.035 0-9.735-.22l4.51-7.92q-.55-1.76-.99-3.3-1.76-5.5-6.16-5.61a4.183 4.183 0 0 0-2.306.751q-3.283 2.147-6.487 10.435a91.81 91.81 0 0 0-1.987 5.754q-1.76.11-3.3.11h-2.64a22.628 22.628 0 0 0-.076.09q-1.171 1.392-1.786 2.584a6.891 6.891 0 0 0-.503 1.231 10.305 10.305 0 0 0-.245 1.066q-.25 1.404-.25 3.279 0 .872.83 1.053a2.314 2.314 0 0 0 .49.047h4.95q-1.815 8.243-2.382 14.147a51.442 51.442 0 0 0-.238 3.706 4.863 4.863 0 0 0-.032.027q-.315.261-.668.616a16.821 16.821 0 0 0-.75.809q-1.168 1.341-2.767 2.832a61.677 61.677 0 0 1-2.073 1.843 32.907 32.907 0 0 1-5.842 4.021 22.712 22.712 0 0 1-10.768 2.799 19.522 19.522 0 0 1-2.219-.184 15.687 15.687 0 0 1-5.041-1.576 5.704 5.704 0 0 1-2.913-3.31 7.782 7.782 0 0 1-.387-2.3v-2.75q4.4-1.98 8.965-3.575a63.592 63.592 0 0 0 3.041-1.149 52.461 52.461 0 0 0 5.264-2.481 22.469 22.469 0 0 0 1.598-.955 18.672 18.672 0 0 0 4.507-4.105 10.796 10.796 0 0 0 2.006-4.328 15.491 15.491 0 0 0 .359-3.427 13.31 13.31 0 0 0-.013-.602 9.836 9.836 0 0 0-3.232-7.098q-3.245-2.97-9.24-2.97t-11.275 2.695a28.16 28.16 0 0 0-1.619.895 29.744 29.744 0 0 0-7.676 6.64 34.719 34.719 0 0 0-2.998 4.232 41.36 41.36 0 0 0-3.437 7.263 43.501 43.501 0 0 0-1.377 4.517 34.824 34.824 0 0 0-.904 5.35 125.851 125.851 0 0 0-.843 1.04 177.555 177.555 0 0 0-1.166 1.468 114.078 114.078 0 0 1-.44.56q-6.826 8.635-13.86 14.07 3.465-11.797 5.755-20.285a460.216 460.216 0 0 0 1.395-5.29q2.53-9.845 2.75-14.355a5.245 5.245 0 0 0-.148-1.176q-.331-1.429-1.399-3.374a31.889 31.889 0 0 0-1.203-1.995 19.7 19.7 0 0 0-.145-.22q-1.479-2.213-3.053-3.239a5.108 5.108 0 0 0-2.632-.886 4.074 4.074 0 0 0-2.994 1.262q-.646.649-1.162 1.633zM390.83 62.7a16.862 16.862 0 0 0 .249 3.039q1.001 5.431 6.021 5.431 3.328 0 6.754-2.359a18.889 18.889 0 0 0 .396-.281q2.948-2.144 4.953-6.463a28.74 28.74 0 0 0 .877-2.117 267.421 267.421 0 0 1 1.692-7.398 211.738 211.738 0 0 1 1.773-6.792q1.815-6.49 2.475-9.02-9.24 1.21-17.215 8.25a22.504 22.504 0 0 0-7.941 16.35 27.65 27.65 0 0 0-.034 1.36zm-333.96 0a16.862 16.862 0 0 0 .249 3.039q1.001 5.431 6.021 5.431a11.834 11.834 0 0 0 8.453-3.738 19.476 19.476 0 0 0 2.657-3.412 18.451 18.451 0 0 0 1.363-2.602q.657-1.523 1.167-3.338a115.528 115.528 0 0 1 .364-9.429q.364-4.445 1.096-8.304a60.166 60.166 0 0 1 .74-3.387q-8.91 1.76-15.51 8.58a23.227 23.227 0 0 0-6.531 15.096 30.804 30.804 0 0 0-.069 2.064Zm123.09 0a16.862 16.862 0 0 0 .249 3.039q1.001 5.431 6.021 5.431a10.721 10.721 0 0 0 4.284-.93q1.418-.613 2.844-1.631a19.475 19.475 0 0 0 .407-.299q2.904-2.188 4.81-6.631a30.369 30.369 0 0 0 1.075-2.939q.22-9.9 2.31-21.78a28.861 28.861 0 0 0-14.985 8.159 34.963 34.963 0 0 0-.415.421 23.227 23.227 0 0 0-6.531 15.096 30.804 30.804 0 0 0-.069 2.064zm63.03 41.03a6.541 6.541 0 0 0 4.038-1.489q2.831-2.175 5.312-7.531-3.96.77-7.04 1.155a299.481 299.481 0 0 0-2.186.281q-.859.114-1.633.222a155.432 155.432 0 0 0-1.461.212q-4.292.644-4.292 2.23a1.201 1.201 0 0 0 .002.08 3.369 3.369 0 0 0 .92 2.302q.432.484 1.068.914a8.182 8.182 0 0 0 .487.304q2.299 1.328 4.455 1.328a6.955 6.955 0 0 0 .33-.008zm152.46-7.7a116.171 116.171 0 0 0 1.953-.307q2.255-.374 4.977-.903a49.666 49.666 0 0 1-.109.238q-2.649 5.719-5.345 7.666a4.75 4.75 0 0 1-2.796 1.006 7.619 7.619 0 0 1-.346.008q-1.2 0-2.413-.378a10.524 10.524 0 0 1-2.136-.95 8.195 8.195 0 0 1-.702-.453q-.594-.43-.989-.904A3.14 3.14 0 0 1 386.76 99a1.99 1.99 0 0 1 .004-.124q.056-.894.931-1.306a4.936 4.936 0 0 1 .313-.133q.92-.358 2.547-.637 1.925-.33 4.895-.77zM462 39.05a5 5 0 0 0-3.897 1.991q-2.673 3.156-4.023 11.319 2.31-1.54 4.345-2.75Q460.46 48.4 462 47.3a10.973 10.973 0 0 0 1.679-1.495q1.654-1.839 1.731-4.005 0-2.496-2.81-2.727a7.356 7.356 0 0 0-.6-.023Z" font-size="12" style="fill:#000;stroke:#000;stroke-width:.25mm" transform="matrix(2.37983 0 0 2.37985 16.905 50.164)" vector-effect="non-scaling-stroke"/><path d="M26.54 15.7s.79-4.27 2.36-6.74c1.57-2.47 4.16-5.28 4.94-4.94.79.34 1.57 3.48 4.5 9.78 2.93 6.3 7.87 14.83 7.75 20.45-.12 5.62-2.25 8.43-2.25 8.43s-6.05 9.99-17.5 9.06c-9.3-.75-13.45-3.86-18.55-6.57-2.13-1.13-4.75-1.25-4.97-2.38-.22-1.12 1.1-2.95 2.14-4.16 1.75-2.04 5.46-3.28 6.93-5.91 1.47-2.63 1.48-6.62 3.86-9.97 4.42-6.19 10.79-7.05 10.79-7.05z" style="fill:#e0e0e0" transform="matrix(1.68685 0 0 1.78506 696.264 74.168)"/><path d="M33.23 13.68c-.91-.1-2.14 2.33-1.96 4.04.18 1.71 1.65 4.44 3.31 7.96 1.96 4.16 3.42 9.98 5.27 9.55 1.84-.43.37-6.18-1.22-10.59-1.61-4.41-4.24-10.84-5.4-10.96zM29.17 35.06c1.49-.72.8-3.98-.37-7.96s-1.9-5.87-4.16-6.31c-2.2-.43-3.73.86-4.9 2.51-1.17 1.65-2.02 3.61-1.96 4.71.06 1.1.37 1.84 2.02 2.51.99.4 2.5.88 3.98 1.84 1.71 1.1 3.73 3.49 5.39 2.7zM10.94 37.06c-1.6 0-4.29 2.08-3.8 3.61.55 1.72 4.27 1.62 8.69 2.51 6.98 1.41 11.23 3.02 11.88.98.43-1.35-5.2-3.61-8.63-4.78-2.57-.86-6.18-2.32-8.14-2.32z" style="fill:#fff" transform="matrix(1.68685 0 0 1.78506 696.264 74.168)"/><path d="M81.73 81.65c-4.85 5.17-7.37 12.51-2.6 21.25 3.73 6.82 8.65 9.22 11.68 14.07 3.03 4.85 2.67 7.81 3.45 7.74.77-.07 3.24-2.53 4.5-5.21 1.27-2.67.77-5.07 2.04-6.61s5.49-1.76 7.95-4.71 2.11-5.42 4.36-7.74c2.25-2.32 5.56-3.03 7.81-5.63s4.29-5.91 3.8-6.68c-.49-.77-2.25-.35-7.46-1.9-5.21-1.55-15.69-8.3-23.5-8.86-5.49-.4-8.86.91-12.03 4.28z" style="fill:#e0e0e0" transform="matrix(1.68685 0 0 1.78506 696.264 74.168)"/><path d="M89.74 83.42c-.81 1.43 7.27 3.2 11.68 6s6.87 5.45 8.55 5.45c1.68 0 6.01-2.44 5.66-4.19-.35-1.75-3.19-1.7-4.42-2.07-1.39-.43-7.46-3.33-9.55-4.25-3.02-1.35-10.62-3.23-11.92-.94zM89.31 89.88c-.82.92 1.55 3.47 5.69 7.89 4.49 4.8 6.63 6.44 8.59 4.49 1.78-1.78.31-3.87-3.33-6.61-2.65-2-9.98-6.85-10.95-5.77zM87.76 97.56c-1.3.47 1.24 6.85 2.09 9.59.85 2.75 2.48 6.19 4.18 6.19 1.7 0 3.33-2.09 3.06-4.22s-3.8-5.87-4.76-7.04c-1.36-1.66-3.72-4.83-4.57-4.52z" style="fill:#fff" transform="matrix(1.68685 0 0 1.78506 696.264 74.168)"/><path d="M39.09 44.82c-6.47 6.72-8.63 13.58-7.9 22.97.95 12.07 14.11 27.36 29.97 27.01 12.8-.28 20.09-6.7 23.41-11.37 3.06-4.3 7.29-10.97 6.22-21.12-1.28-12.18-13.96-26.76-29.25-26.85-12.22-.08-17.48 4.2-22.45 9.36Z" style="fill:#ff5960" transform="matrix(1.68685 0 0 1.78506 696.264 74.168)"/><path d="M40.82 54c-4.42 9.69-9.69 12.85-9.69 12.85s.1 1.98.5 3.81c.47 2.15 1.22 3.85 1.22 3.85s5.65-4.17 9.13-10.22c3.78-6.57 6.2-12.13 7.15-17.09.95-4.96 1.37-10.22 1.37-10.22s-1.67.52-3.67 1.56c-1.59.83-2.39 1.49-2.39 1.49s.07 5.89-3.62 13.97zM57.34 35.63s.75 4.09-1.17 11.9c-.93 3.78-2.46 8.74-5.04 14.22-2.31 4.92-4.53 8.43-6.46 11.34-4.53 6.85-7.65 8.79-7.65 8.79s1.01 1.4 2.04 2.52 2.37 2.34 2.37 2.34 5.3-2.89 12.31-15.45c7.01-12.56 8.89-20.42 9.65-25.8.77-5.38.64-9.89.64-9.89s-1.79-.16-3.33-.15c-1.91.01-3.36.18-3.36.18zM71.03 37.39s-.45 15.85-7.47 29.7c-6.53 12.88-16.6 23.78-16.6 23.78s1.4.91 3.26 1.72c2.12.92 3.94 1.34 3.94 1.34s2.29-2.1 5.68-6.95c2.84-4.08 6.95-9.85 10.61-18.2 2.99-6.81 4.28-12 5.3-16.42 1.63-7.05 1.38-11.62 1.38-11.62s-1.11-.9-2.95-1.87c-1.79-.96-3.15-1.48-3.15-1.48zM83.3 46.33s-.39 10.78-7.32 26.44c-2.69 6.07-5.04 9.94-7.32 13.26-4.21 6.12-7.5 8.77-7.5 8.77s2.79-.09 5-.44c2.45-.39 4.37-1.02 4.37-1.02s5.57-5.68 10.86-17.37c5.08-11.22 6.78-22.35 6.78-22.35s-.75-1.76-2.17-3.82c-1.1-1.6-2.7-3.47-2.7-3.47z" style="fill:#fe7c84" transform="matrix(1.68685 0 0 1.78506 696.264 74.168)"/><path d="M55.7 41.92c-5.44 1.19-10.95 5.01-12.33 8.46-1.4 3.5 1.01 5.24 3.4 4.51 2.39-.74 5.61-4.19 10.76-5.11 5.15-.92 9.52-.41 11.68.18s3.93.42 4.38-1.24c.43-1.58-.43-3.71-4.06-5.57-4-2.04-9.83-2.1-13.83-1.23z" style="fill:#fff" transform="matrix(1.68685 0 0 1.78506 696.264 74.168)"/><path d="M90.8 62.31c-1.28-12.18-13.96-26.76-29.25-26.85-12.23-.08-17.49 4.21-22.46 9.37-6.47 6.72-8.63 13.58-7.9 22.97.95 12.07 14.11 27.36 29.97 27.01 12.8-.28 20.09-6.7 23.41-11.37 3.07-4.31 7.3-10.98 6.23-21.13zm-9.54 18.63c-2.88 4.04-9.18 9.6-20.26 9.84-13.72.3-25.11-12.93-25.94-23.38-.64-8.12 1.23-14.06 6.83-19.88 4.3-4.47 8.85-8.17 19.43-8.1 13.23.08 24.21 12.7 25.31 23.24.94 8.79-2.73 14.56-5.37 18.28z" style="opacity:.5;fill:#fff" transform="matrix(1.68685 0 0 1.78506 696.264 74.168)"/></svg>